<svg width="682" height="80" viewBox="0 0 682 80" fill="none" xmlns="http://www.w3.org/2000/svg">
<g clip-path="url(#clip0_879_272)">
<path d="M0 5.00078C0.286114 1.03251 1.04494 0.186604 4.32903 0.0248871C5.12518 -0.0124321 5.92132 0.0248871 6.7299 0.0248871C38.7 0.0248871 70.6702 0.0248871 102.64 0.0248871C117.481 0.0248871 131.264 8.72027 136.887 22.6901C139.611 29.4822 141.116 36.3365 140.544 43.5764C139.922 51.401 137.148 58.529 132.197 64.612C127.893 69.8865 122.88 74.3648 116.336 76.9025C112.107 78.5446 107.803 79.7637 103.287 79.8507C95.1641 80.0124 87.0409 79.8507 78.9177 80C75.7207 80.0622 73.1581 78.8058 71.0807 76.7284C63.9154 69.5879 56.887 62.3107 49.8087 55.0832C49.4356 54.71 49.1494 54.2497 48.8758 53.889C49.025 50.4556 49.9083 49.2987 52.757 48.938C53.6775 48.8136 54.6229 48.9255 55.5559 48.9255C70.0731 48.9255 84.6027 48.9255 99.1199 48.9255C101.247 48.9255 103.337 48.9255 105.302 47.7935C108.947 45.7036 110.39 42.2951 109.47 37.5432C108.873 34.483 105.178 31.3979 101.707 31.1118C100.513 31.0123 99.3065 31.0496 98.1123 31.0496C76.2681 31.0496 54.4239 30.975 32.5673 31.0994C27.8526 31.1242 24.1704 29.6066 20.9237 26.1981C14.9401 19.9409 8.7327 13.8952 2.63723 7.74997C1.70425 6.81699 0.808583 5.83425 0 4.98835V5.00078Z" fill="white"/>
<path d="M338.374 69.5508C328.945 69.8369 321.356 66.4036 315.137 60.1713C307.76 52.782 304.302 40.2801 309.103 29.3456C313.582 19.1325 321.182 13.0495 332.279 11.0094C343.201 8.99414 352.58 11.8677 360.268 19.5057C374.275 33.4258 370.63 55.8795 353.837 65.5328C348.886 68.3815 343.673 69.924 338.374 69.5508ZM356.474 40.2925C356.822 30.602 348.911 21.6329 338.013 21.5458C326.706 21.4588 319.155 29.8183 319.155 40.2925C319.155 50.5926 326.905 58.9522 338.299 58.9024C349.893 58.8526 356.772 48.9506 356.474 40.2801V40.2925Z" fill="white"/>
<path d="M295.134 37.3315C294.835 51.8985 289.436 60.0838 279.808 65.7937C269.01 72.1877 252.627 70.6576 243.148 61.8254C228.258 47.9675 230.621 24.9789 248.497 14.5544C260.066 7.81201 274.048 8.88183 284.51 17.5275C291.563 23.3617 295.445 31.0743 295.134 37.3315ZM282.918 40.3419C283.378 29.5069 273.464 21.446 265.029 21.4211C254.68 21.3962 245.362 29.3577 245.611 40.2175C245.847 51.0899 253.237 58.9767 265.104 58.8398C276.362 58.7154 283.104 49.311 282.918 40.3419Z" fill="white"/>
<path d="M449.846 12.1414C450.654 12.0543 451.301 11.9423 451.948 11.9423C458.466 11.9423 464.985 11.7806 471.491 11.9797C485.598 12.4151 496.52 21.1353 499.194 35.2295C502.118 50.6797 492.912 63.4429 479.838 67.5729C477.238 68.3939 474.389 68.6427 471.653 68.7173C465.545 68.8791 459.424 68.7671 453.304 68.7671H449.858C449 65.3835 448.975 15.6991 449.858 12.1414H449.846ZM461.477 22.9888C460.842 34.9061 461.079 54.7475 461.974 58.1187C464.487 58.1187 467.125 58.2555 469.737 58.0938C475.198 57.7455 479.987 56.0039 483.632 51.5505C491.021 42.5317 487.75 27.9025 475.87 23.9094C471.192 22.342 466.428 23.3745 461.477 22.9888Z" fill="white"/>
<path d="M171.269 12.0668C180.139 12.0668 188.884 11.1587 197.356 12.2907C209.236 13.8581 217.147 21.2598 220.456 32.9034C223.504 43.6389 219.685 56.2776 209.049 63.5673C204.907 66.416 200.304 68.2074 195.452 68.4686C187.516 68.8916 179.529 68.5806 171.618 68.5806C170.822 65.6945 170.535 19.4062 171.269 12.0668ZM183.137 57.4967C186.458 57.4967 189.382 57.5963 192.293 57.4719C198.363 57.2106 203.202 54.6356 206.474 49.4358C211.126 42.059 209.547 33.1273 204.085 27.6538C198.015 21.5708 190.601 22.2549 183.137 22.5535V57.4967Z" fill="white"/>
<path d="M397.188 48.888V67.5352C394.339 68.9533 388.492 69.028 385.32 67.7218V12.1659C386.228 12.0664 387.112 11.8798 387.982 11.8798C395.571 11.8549 403.159 11.9669 410.747 11.8425C419.592 11.6932 428.81 17.9504 429.68 29.4074C430.215 36.3612 427.105 41.9715 421.483 46.1388C421.172 46.3752 420.786 46.4996 420.45 46.7235C420.226 46.8603 420.04 47.0718 419.629 47.4201C423.373 54.0256 427.105 60.6311 430.812 67.1869C429.602 68.2982 425.638 68.775 418.92 68.6175C414.765 62.4971 411.717 55.4562 407.587 48.888H397.163H397.188ZM417.154 32.679C417.203 31.9078 417.303 31.1116 417.303 30.3155C417.303 25.9989 414.753 22.8019 410.498 22.4909C406.169 22.1799 401.803 22.4287 397.412 22.4287V37.5181C401.193 37.5181 404.776 37.3315 408.334 37.5678C412.24 37.8415 415.002 36.3239 417.141 32.679H417.154Z" fill="white"/>
<path d="M645.686 45.6414C645.313 53.068 645.922 60.3452 645.3 67.7717C641.481 69.1401 637.787 68.232 633.992 68.4684C633.706 67.61 633.258 66.901 633.258 66.2043C633.221 48.8882 633.221 31.5721 633.258 14.256C633.258 13.6215 633.532 12.9995 633.731 12.1288H645.114C646.096 15.6741 645.437 19.3811 645.549 23.026C645.673 26.6211 645.574 30.2162 645.574 33.7864C648.534 34.4581 662.119 34.6323 669.769 34.0725V12.1536C673.887 11.6561 677.656 11.8053 681.612 12.0292V67.7717C677.867 69.1401 673.961 68.5057 669.806 68.0827V45.629H645.686V45.6414Z" fill="white"/>
<path d="M530.269 11.9424H543.417C547.124 21.2598 550.931 30.6269 554.576 40.0562C558.171 49.3487 562.002 58.5417 565.411 67.9834C563.072 69.1155 561.057 68.593 559.116 68.6801C557.138 68.7671 555.148 68.7049 552.909 68.7049C551.217 64.1644 549.575 59.7608 547.896 55.2451H526.027C524.347 59.5866 522.593 64.0774 520.877 68.5183C516.846 68.5183 513.151 68.5432 509.457 68.4686C509.121 68.4686 508.798 67.7346 508.449 67.2992C515.714 48.876 522.954 30.5274 530.269 11.9548V11.9424ZM536.799 25.8998C534.374 32.4555 532.172 38.3893 529.821 44.7211C532.421 44.7211 534.66 44.7709 536.899 44.7087C539.088 44.634 541.315 45.0321 543.666 44.3728C541.402 38.2649 539.213 32.3809 536.812 25.8998H536.799Z" fill="white"/>
<path d="M614.734 18.4605C612.495 20.6747 610.418 22.7149 608.029 25.0784C607.059 24.5559 606.039 24.0832 605.093 23.4861C601.859 21.4211 598.451 20.7245 594.582 21.3092C592.032 21.6948 590.638 23.2498 588.996 25.0784V28.9099C591.248 32.3059 594.905 33.214 598.401 34.3336C602.531 35.6522 606.773 36.5603 610.505 39.0358C615.804 42.5438 617.881 47.358 617.135 53.5406C616.003 62.8206 609.298 68.8539 599.906 69.5878C594.706 69.9983 589.681 69.8242 584.792 67.9209C580.799 66.3659 577.228 64.2014 574.367 60.2829C576.594 57.9815 578.758 55.7424 580.786 53.6525C582.677 53.553 583.349 54.9214 584.394 55.6553C588.959 58.8523 593.898 60.2207 599.346 58.4294C600.665 57.994 602.008 57.1978 602.979 56.2151C606.176 52.9932 605.529 49.1244 601.859 47.3829C599.023 46.0269 596.05 44.9198 593.064 43.9371C589.307 42.6931 585.526 41.6482 582.254 39.2224C573.596 32.7911 575.014 20.1523 582.789 14.2932C591.484 7.73741 606.611 9.72777 613.901 17.1294C614.162 17.4031 614.311 17.8012 614.722 18.5102L614.734 18.4605Z" fill="white"/>
</g>
<defs>
<clipPath id="clip0_879_272">
<rect width="681.611" height="80" fill="white"/>
</clipPath>
</defs>
</svg>
