<svg width="472" height="133" viewBox="0 0 472 133" fill="none" xmlns="http://www.w3.org/2000/svg">
<g clip-path="url(#clip0_879_284)">
<path d="M112.058 39.9046C111.81 39.5964 111.611 39.2086 111.581 38.791C110.371 25.2086 108.446 16.2001 108.446 16.2001C108.139 14.6489 106.799 13.5055 105.262 13.3165L94.4379 12.004C94.3486 11.9941 94.2494 11.9841 94.1502 11.9841C92.8902 11.9841 91.8683 13.0083 91.8683 14.2711V18.0395C91.8683 18.1191 91.8088 18.1787 91.7295 18.1787C91.6997 18.1787 91.66 18.1688 91.6402 18.1489C85.1618 12.3023 77.8599 6.62478 69.7743 1.62336C68.2366 0.589267 66.4111 -0.00732422 64.417 -0.00732422C62.4328 -0.00732422 60.5974 0.589267 59.0596 1.61341C21.7071 24.7412 1.15083 62.3165 0.347235 64.3748C0.119052 64.852 0 65.389 0 65.9557C0 67.6858 1.1806 69.1475 2.7878 69.5552L13.5521 71.6333C14.9906 72.031 16.0819 73.264 16.2407 74.7853C16.3299 76.6844 18.3637 119.211 20.9134 130.248C21.3301 131.839 22.7786 133.013 24.4949 133.013H24.5743C30.8543 132.853 36.5985 132.754 42.8091 132.664H42.7892H42.8487C43.0075 132.664 43.1662 132.664 43.325 132.664C43.9897 132.664 44.5254 132.118 44.5254 131.451V131.422C44.2774 127.713 43.7317 119.221 43.2952 110.282C43.2853 110.054 43.2654 109.775 43.2555 109.547C43.2158 108.771 42.7892 108.095 42.1642 107.717C38.93 105.778 36.7275 102.318 36.5192 98.3208C35.9537 83.406 35.666 66.1645 36.4795 52.6816C36.5489 51.558 37.4617 50.6631 38.6026 50.6432C39.7931 50.6233 40.7852 51.5779 40.805 52.7711C40.805 52.8307 40.805 52.8904 40.805 52.9401C40.2792 61.9287 40.2296 72.558 40.4181 83.048C40.4479 84.46 41.6086 85.5935 43.0273 85.5736C44.4361 85.5537 45.5671 84.3804 45.5473 82.9586C45.3588 72.3989 45.4084 61.71 45.954 52.6816C46.0235 51.558 46.9362 50.6631 48.0771 50.6432C49.2676 50.6233 50.2597 51.5779 50.2796 52.7711C50.2796 52.8307 50.2796 52.8904 50.2796 52.9401C49.7538 61.879 49.7042 72.4486 49.8926 82.879C49.9224 84.3009 51.0832 85.4245 52.4919 85.4046C53.9007 85.3747 55.0218 84.2213 55.002 82.8094C54.8135 72.2995 54.8631 61.6603 55.4087 52.6816C55.4782 51.558 56.3909 50.6631 57.5318 50.6432C58.7223 50.6233 59.7144 51.5779 59.7343 52.7711C59.7343 52.8307 59.7343 52.8904 59.7343 52.9401C58.9604 66.0552 59.2085 82.6503 59.7442 97.2071C59.7442 97.2071 59.7442 97.3364 59.7442 97.3463C59.7442 97.4159 59.7442 97.4955 59.7442 97.5651V97.7142C59.7442 101.692 57.7501 105.211 54.7143 107.309C54.1686 107.687 53.8015 108.294 53.7618 109C53.7618 109 53.494 111.237 54.4761 122.065C54.9325 126.798 55.2897 130.069 55.4484 131.551C55.5178 132.108 55.9841 132.545 56.5695 132.545C56.9068 132.545 57.2441 132.545 57.5814 132.545H57.5715C59.645 132.545 61.7879 132.535 64.0003 132.535H64.8337C67.6413 132.535 70.32 132.535 72.8994 132.555L79.0008 132.605C79.5762 132.605 80.0525 132.167 80.1417 131.601C81.5505 118.615 81.8878 111.326 81.8878 111.326C81.8878 110.67 81.3918 110.183 80.7271 110.084L73.3161 109.059C72.1454 108.851 71.441 108.135 71.193 107.24C71.0442 106.703 71.1037 106.096 71.1037 106.096C74.1098 62.8236 88.3464 48.2469 88.3464 48.2469C88.7631 47.8194 89.0409 47.6503 89.0409 47.6503C89.4179 47.3719 89.8842 47.2128 90.3802 47.2128C91.3425 47.2128 92.166 47.8094 92.5033 48.6645C92.5033 48.6645 92.6223 48.9628 92.6918 49.6986C93.922 63.3009 93.3168 86.4486 92.5628 104.505C91.918 119.828 91.1342 131.859 91.1342 131.859V131.889C91.1342 132.376 91.531 132.784 92.0271 132.784C96.0649 132.853 100.043 132.933 104.26 133.042H104.339C106.055 133.042 107.504 131.869 107.921 130.278C110.47 119.251 112.514 76.7242 112.593 74.8151C112.752 73.3037 113.843 72.0608 115.282 71.6631L126.046 69.585C127.653 69.1773 128.834 67.7256 128.834 65.9856C128.834 65.4188 128.705 64.8819 128.477 64.4046C128.07 63.3506 122.455 52.9401 112.048 39.9344" fill="white"/>
<path d="M149.578 111.972C149.571 111.965 149.556 111.958 149.549 111.95L149.578 111.98V111.972Z" fill="white"/>
<path d="M222.132 88.0569L222.171 88.0171C223.332 87.2216 224.374 86.2671 225.326 85.2231L225.287 85.3026C228.729 81.3054 230.545 76.1549 230.366 70.875V70.7557C230.455 65.5455 228.57 60.4944 225.088 56.6265L225.297 56.875C221.834 52.9574 216.913 50.6506 211.695 50.5015H192.766C192.151 50.5015 191.645 50.9986 191.645 51.6151V115.281C191.645 115.908 192.141 116.405 192.766 116.405H204.036C204.651 116.405 205.157 115.908 205.157 115.291V91.7259H209.314L216.427 115.739C216.546 116.196 217.013 116.534 217.509 116.534H229.493C229.85 116.534 230.188 116.365 230.406 116.077C230.575 115.769 230.575 115.391 230.406 115.072L222.132 88.0569ZM215.137 76.3438H215.177C214.016 77.5867 212.379 78.2529 210.683 78.1833H205.147V63.9645H210.633C212.33 63.885 213.967 64.5611 215.128 65.804V65.7642C216.298 67.1762 216.903 68.9759 216.834 70.8054V70.885C216.963 72.8836 216.378 74.8026 215.128 76.3438" fill="white"/>
<path d="M271.617 111.898C271.617 111.898 271.603 111.913 271.588 111.92L271.617 111.891V111.898Z" fill="white"/>
<path d="M178.083 55.0751C174.343 51.3364 169.223 49.308 163.935 49.487H163.856C158.568 49.2881 153.449 51.3165 149.709 55.0751L149.838 54.906C146.266 59.0424 144.431 64.4117 144.718 69.8705V96.9657C144.341 102.424 146.088 107.794 149.58 111.96C153.31 115.699 158.419 117.707 163.687 117.518H163.896C169.184 117.717 174.303 115.689 178.043 111.93C181.545 107.744 183.291 102.375 182.914 96.9259V82.1205C182.885 81.4941 182.379 81.0069 181.744 80.9969H165.106C164.471 80.9969 163.945 81.4941 163.896 82.1205V93.2072C163.935 93.8734 164.431 94.3805 165.106 94.3805H169.68V96.9259C169.769 98.835 169.213 100.714 168.102 102.265L168.142 102.226C167.14 103.478 165.602 104.184 164.025 104.055H163.945C162.368 104.184 160.82 103.558 159.828 102.305C158.667 100.794 158.072 98.9146 158.161 97.0154V70.0893C158.082 68.1305 158.697 66.2114 159.907 64.6702C160.91 63.4174 162.447 62.7114 164.025 62.8307H164.104C165.691 62.7114 167.219 63.3378 168.221 64.5807L168.301 64.6603C169.352 66.2512 169.838 68.1404 169.67 70.0396V72.5353C169.709 73.1219 170.205 73.5395 170.791 73.5395H182.061C182.646 73.5395 183.142 73.1219 183.182 72.5353V69.9898C183.47 64.531 181.644 59.1915 178.023 55.0651H178.063L178.083 55.0751Z" fill="white"/>
<path d="M243.203 111.933C243.196 111.925 243.181 111.918 243.174 111.911L243.203 111.94V111.933Z" fill="white"/>
<path d="M371.134 50.5708H359.814C359.199 50.5708 358.693 51.068 358.693 51.6844V76.3733H347.254V51.6944C347.254 51.0779 346.758 50.5708 346.143 50.5708H334.902C334.287 50.5708 333.781 51.068 333.781 51.6944V115.271C333.781 115.897 334.277 116.395 334.902 116.395H346.173C346.788 116.395 347.294 115.897 347.294 115.281V89.7171H358.733V115.271C358.733 115.897 359.229 116.395 359.854 116.395H371.124C371.739 116.395 372.245 115.897 372.245 115.281V51.7043C372.245 51.0878 371.749 50.5807 371.134 50.5807" fill="white"/>
<path d="M276.448 96.9359V51.5752C276.398 51.0084 275.932 50.5709 275.366 50.5709H263.848C263.263 50.5709 262.767 50.9885 262.727 51.5752V96.926C262.816 98.8053 262.271 100.635 261.15 102.096C259.255 104.145 256.07 104.294 253.996 102.435C253.848 102.335 253.729 102.206 253.62 102.057C252.558 100.595 252.022 98.8152 252.121 97.0155V51.5752C252.121 51.0184 251.665 50.5709 251.109 50.5709C251.09 50.5709 251.06 50.5709 251.04 50.5709H239.482C238.917 50.5212 238.411 50.9388 238.361 51.5155C238.361 51.5155 238.361 51.5255 238.361 51.5354V96.9359C237.984 102.395 239.73 107.764 243.222 111.93C246.953 115.669 252.062 117.677 257.33 117.488H257.499C262.767 117.687 267.876 115.669 271.606 111.93C275.098 107.754 276.845 102.375 276.468 96.9359" fill="white"/>
<path d="M469.173 96.0611V96.1406C469.173 90.8012 466.762 85.7202 462.595 82.3793L462.675 82.4191L462.754 82.3395C466.187 79.0384 468.121 74.4744 468.121 69.7117V69.9602C468.3 64.9787 466.574 60.1264 463.3 56.3679L463.389 56.4872C459.857 52.5398 454.787 50.3125 449.5 50.402H431.443C430.828 50.402 430.322 50.8992 430.322 51.5156V115.271C430.322 115.898 430.818 116.395 431.443 116.395H450.244C455.948 116.474 461.395 114.018 465.056 109.643L465.016 109.683C467.963 105.776 469.441 100.943 469.173 96.0511M443.755 63.9446H449.41C450.819 63.8452 452.208 64.3821 453.19 65.4063L453.27 65.4858C454.252 66.8182 454.728 68.4588 454.599 70.1094C454.758 71.8495 454.212 73.6293 453.18 75.071V75.0313C452.248 76.1151 450.859 76.7017 449.44 76.6222H443.735V63.9446H443.755ZM455.948 96.1307V96.1705C456.028 98.0497 455.412 99.8793 454.281 101.381L454.321 101.46L454.361 101.42C453.329 102.653 451.762 103.3 450.154 103.17H443.745V89.4191H450.194C451.791 89.2798 453.359 89.9361 454.401 91.1691L454.361 91.1293C455.472 92.5512 456.037 94.331 455.938 96.1307" fill="white"/>
<path d="M420.292 96.9359V51.5752C420.253 51.0382 419.796 50.5709 419.25 50.5709H407.643C407.077 50.5212 406.571 50.9388 406.522 51.5155C406.522 51.5155 406.522 51.5255 406.522 51.5354V96.9359C406.601 98.7655 406.105 100.565 405.024 102.027C403.139 104.115 399.924 104.274 397.831 102.405C397.682 102.305 397.563 102.176 397.454 102.027C396.393 100.565 395.857 98.7854 395.956 96.9856V51.5851C395.916 50.9985 395.42 50.5809 394.835 50.5809H383.277C382.692 50.5809 382.196 50.9985 382.156 51.5851V97.0652C381.779 102.405 383.525 107.774 387.027 111.95L387.146 112.079C395.262 119.378 407.613 119.288 415.6 111.831L415.431 111.96C418.933 107.774 420.679 102.395 420.302 96.9558" fill="white"/>
<path d="M325.369 96.0608V96.2299C325.369 90.8506 322.958 85.8094 318.802 82.4287L318.881 82.3492C322.304 79.048 324.238 74.504 324.248 69.7512C324.298 64.9387 322.581 60.2654 319.427 56.6262V56.666C315.895 52.7185 310.825 50.4912 305.537 50.5807H287.57C286.955 50.5807 286.449 51.0779 286.449 51.6944V115.281C286.449 115.907 286.955 116.405 287.57 116.405H306.46C312.154 116.484 317.611 114.028 321.262 109.653L321.222 109.693C324.169 105.785 325.647 100.953 325.379 96.0608M299.882 63.9543H305.537C306.946 63.8549 308.335 64.3918 309.327 65.4159L309.406 65.4955C310.389 66.8279 310.865 68.4685 310.746 70.1191C310.904 71.8591 310.359 73.639 309.327 75.0807V75.0409C308.394 76.1248 307.005 76.7114 305.587 76.6319H299.892V63.9543H299.882ZM312.065 96.1404V96.1802C312.145 98.0594 311.529 99.889 310.398 101.39L310.438 101.47L310.478 101.43C309.446 102.663 307.879 103.309 306.271 103.18H299.862V89.4287H306.311C307.908 89.2895 309.476 89.9458 310.518 91.1787L310.478 91.139C311.589 92.5608 312.154 94.3407 312.055 96.1404" fill="white"/>
<path d="M468.857 50.0542C470.295 50.0542 471.456 51.2275 471.456 52.709C471.456 54.1906 470.305 55.3639 468.857 55.3639C467.408 55.3639 466.277 54.1906 466.277 52.709C466.277 51.2275 467.428 50.0542 468.857 50.0542ZM468.857 54.8667C470.027 54.8667 470.92 53.9221 470.92 52.709C470.92 51.496 470.018 50.5514 468.857 50.5514C467.696 50.5514 466.813 51.496 466.813 52.709C466.813 53.9221 467.706 54.8667 468.857 54.8667ZM467.974 51.3269H469.025C469.541 51.3269 469.889 51.6551 469.889 52.1622C469.889 52.5798 469.611 52.8283 469.393 52.888V52.9079C469.393 52.9079 469.422 52.9377 469.482 53.057L470.008 54.0712H469.442L468.936 53.0073H468.49V54.0712H467.974V51.3269ZM468.926 52.6295C469.194 52.6295 469.373 52.4505 469.373 52.1622C469.373 51.8738 469.194 51.7147 468.926 51.7147H468.49V52.6195H468.926V52.6295Z" fill="white"/>
</g>
<defs>
<clipPath id="clip0_879_284">
<rect width="471.455" height="133" fill="white"/>
</clipPath>
</defs>
</svg>
