<svg width="551" height="130" viewBox="0 0 551 130" fill="none" xmlns="http://www.w3.org/2000/svg">
<path d="M9.633 111.56C12.7523 111.56 14.4954 109.816 14.4954 107.064C14.4954 104.312 12.6605 102.569 9.633 102.569H5.32109V111.651H9.633V111.56ZM2.01834 99.4494H9.90823C14.7706 99.4494 17.9816 102.477 17.9816 106.972C17.9816 111.468 14.6789 114.495 9.90823 114.495H5.32109V122.844H1.92659V99.4494H2.01834ZM28.9907 120.55C32.5687 120.55 35.1375 117.798 35.1375 113.945C35.1375 110.092 32.5687 107.339 28.9907 107.339C25.4128 107.339 22.844 110.092 22.844 113.945C22.844 117.798 25.4128 120.55 28.9907 120.55ZM19.4495 113.945C19.4495 109.541 22.477 104.404 28.9907 104.404C35.5045 104.404 38.532 109.449 38.532 113.945C38.532 118.44 35.5045 123.486 28.9907 123.486C22.477 123.486 19.4495 118.348 19.4495 113.945ZM39.4494 104.954H42.8439L47.7063 118.991H47.798L51.9265 104.954H55.321L59.4494 118.991H59.5411L64.4035 104.954H67.798L61.1925 122.936H57.5228L53.3944 109.816L49.4494 122.936H45.7797L39.4494 104.954ZM71.7429 112.293H82.6603C82.3851 109.725 80.3668 107.339 77.1558 107.339C73.9448 107.339 72.0182 109.633 71.7429 112.293ZM68.4402 113.945C68.4402 108.348 72.0182 104.404 77.1558 104.404C82.2934 104.404 85.9631 108.165 85.9631 113.761C85.9631 114.22 85.9631 114.679 85.8713 114.954H71.6512C71.8347 118.073 74.3117 120.459 77.3392 120.459C79.9081 120.459 81.6512 119.358 82.8438 117.982L84.8622 120C83.2108 122.11 80.642 123.394 77.3392 123.394C72.1099 123.486 68.4402 119.633 68.4402 113.945ZM89.9998 104.862H93.0273V107.064H93.119C93.9447 105.413 95.6878 104.495 97.9814 104.495C98.8988 104.495 99.8162 104.679 100.55 105.046L99.4493 108.165C98.8071 107.798 97.9814 107.706 97.2474 107.706C94.7704 107.706 93.119 109.725 93.119 112.66V123.027H89.9998V104.862ZM104.77 112.293H115.688C115.413 109.725 113.394 107.339 110.183 107.339C106.972 107.339 104.954 109.633 104.77 112.293ZM101.468 113.945C101.468 108.348 105.046 104.404 110.183 104.404C115.321 104.404 118.991 108.165 118.991 113.761C118.991 114.22 118.991 114.679 118.899 114.954H104.679C104.862 118.073 107.339 120.459 110.367 120.459C112.935 120.459 114.679 119.358 115.871 117.982L117.89 120C116.238 122.11 113.669 123.394 110.367 123.394C105.046 123.486 101.468 119.633 101.468 113.945ZM136.789 114.037C136.789 110.183 134.128 107.523 130.825 107.523C127.523 107.523 124.77 110.183 124.77 114.037C124.77 117.89 127.431 120.55 130.825 120.55C134.22 120.55 136.789 117.89 136.789 114.037ZM121.468 114.037C121.468 108.991 124.862 104.679 130.458 104.679C133.394 104.679 135.229 105.596 136.697 107.248H136.789V97.431H140V123.027H136.972V120.642H136.88C135.688 122.293 133.394 123.394 130.55 123.394C124.862 123.486 121.468 119.082 121.468 114.037ZM169.816 114.037C169.816 110.183 167.247 107.523 163.945 107.523C160.642 107.523 158.073 110.183 158.073 114.037C158.073 117.89 160.642 120.55 163.945 120.55C167.247 120.55 169.816 117.89 169.816 114.037ZM157.981 120.642L157.889 123.027H154.954V97.431H158.073V107.248H158.165C159.633 105.596 161.376 104.679 164.22 104.679C169.633 104.679 173.027 109.082 173.027 114.037C173.027 118.991 169.724 123.394 164.22 123.394C161.376 123.486 159.082 122.385 157.981 120.642ZM175.596 129.725V126.789C175.871 126.881 176.422 126.972 176.88 126.972C178.99 126.972 179.724 126.238 181.009 123.303L173.394 104.954H176.789L182.568 119.266H182.66L188.44 104.954H191.834L184.403 123.027C182.477 127.706 180.825 130 177.155 130C176.697 129.908 176.055 129.908 175.596 129.725ZM200.458 111.193C200.458 105.504 204.036 98.8989 212.293 98.8989C216.146 98.8989 218.99 100.367 220.917 102.477L218.715 104.679C217.155 103.027 214.77 101.926 212.201 101.926C207.431 101.926 203.944 105.871 203.944 111.101C203.944 116.33 207.614 120.275 212.385 120.275C214.77 120.275 217.064 119.541 218.623 118.257V114.128H212.752V111.101H222.018V119.633C220.091 121.743 216.605 123.303 212.201 123.303C204.128 123.486 200.458 116.881 200.458 111.193ZM235.229 110.917C238.44 110.917 240.366 109.358 240.366 106.697C240.366 104.037 238.531 102.477 235.32 102.477H230.366V110.917H235.229ZM226.972 99.4494H235.779C240.642 99.4494 243.944 102.202 243.944 106.697C243.944 110 241.742 112.477 238.531 113.394L244.862 122.936H240.733L234.77 113.945H230.275V122.936H226.788V99.4494M247.981 113.853V99.4494H251.284V113.945C251.284 118.073 253.853 120.367 256.972 120.367C260.091 120.367 262.66 118.165 262.66 113.945V99.4494H265.963V113.853C265.963 119.174 262.752 123.486 256.972 123.486C251.192 123.486 247.981 119.174 247.981 113.853ZM279.999 119.908C282.476 119.908 284.036 118.532 284.036 116.238C284.036 113.945 282.476 112.477 279.999 112.477H275.229V119.908H279.999ZM279.265 109.541C281.559 109.541 283.027 108.165 283.027 105.963C283.027 103.761 281.559 102.477 279.357 102.477H275.32V109.541H279.265ZM271.926 99.4494H279.632C283.669 99.4494 286.33 101.926 286.33 105.78C286.33 107.982 285.045 109.725 283.302 110.642C285.779 111.468 287.339 113.578 287.339 116.422C287.339 120.275 284.219 122.936 279.999 122.936H271.834V99.4494H271.926ZM291.926 99.4494H295.32V109.449H306.972V99.4494H310.366V122.936H306.972V112.477H295.32V122.936H291.926V99.4494ZM315.412 113.853V99.4494H318.898V113.945C318.898 118.073 321.559 120.367 324.862 120.367C328.164 120.367 330.917 118.165 330.917 113.945V99.4494H334.403V113.853C334.403 119.174 331.008 123.486 324.862 123.486C318.715 123.486 315.412 119.174 315.412 113.853ZM347.063 119.908C349.724 119.908 351.375 118.532 351.375 116.238C351.375 113.945 349.724 112.477 347.063 112.477H342.017V119.908H347.063ZM346.238 109.541C348.623 109.541 350.183 108.165 350.183 105.963C350.183 103.761 348.623 102.477 346.238 102.477H341.926V109.541H346.238ZM338.44 99.4494H346.696C351.008 99.4494 353.852 101.926 353.852 105.78C353.852 107.982 352.476 109.725 350.641 110.642C353.302 111.468 354.953 113.578 354.953 116.422C354.953 120.275 351.559 122.936 347.155 122.936H338.531V99.4494H338.44ZM388.806 81.9264C379.816 81.9264 368.898 78.0732 368.898 70.1833V64.6787H378.898V67.6145C378.898 71.1925 383.76 72.8439 388.99 72.8439C394.219 72.8439 397.705 71.009 397.705 67.6145C397.705 63.3943 392.843 62.2934 386.238 59.9081C378.99 57.3393 370.641 54.0365 370.641 44.8622C370.641 34.5869 380.916 31.0089 389.816 31.0089C396.971 31.0089 407.522 33.7612 407.522 41.009V47.1558H397.338V44.3117C397.338 41.7429 394.219 40.0915 389.907 40.0915C385.871 40.0915 382.384 41.6512 382.384 44.7704C382.384 48.9906 387.43 50.642 392.935 52.2934C400.458 54.6787 409.448 57.7062 409.448 67.2475C409.448 76.9723 400.182 81.9264 388.806 81.9264ZM347.43 52.2934C341.926 50.5503 336.88 48.8989 336.88 44.7704C336.88 41.6512 340.366 40.0915 344.403 40.0915C348.715 40.0915 351.834 41.7429 351.834 44.3117V47.1558H362.017V41.009C362.017 33.7612 351.467 31.0089 344.311 31.0089C335.412 31.0089 325.137 34.6787 325.137 44.8622C325.137 54.0365 333.485 57.3393 340.733 59.9081C347.339 62.2934 352.201 63.486 352.201 67.6145C352.201 71.009 348.531 72.8439 343.485 72.8439C338.44 72.8439 333.394 71.1007 333.394 67.6145V64.6787H323.485V70.1833C323.485 78.165 334.311 81.9264 343.394 81.9264C354.77 81.9264 364.036 76.9723 364.036 67.1558C363.944 57.7062 355.045 54.6787 347.43 52.2934ZM282.66 51.009C283.944 44.3117 288.531 39.908 294.953 39.908C300.366 39.908 304.678 43.9447 304.953 51.009H282.66ZM295.32 30.9172C280.825 30.9172 270.458 41.3759 270.458 56.3301C270.458 70.2751 280.641 81.8347 296.788 81.8347C308.99 81.8347 316.421 75.0457 316.421 75.0457L311.926 66.7888C311.926 66.7888 305.687 72.0182 297.614 72.0182C289.999 72.0182 283.302 67.1558 282.476 57.8897H316.696C316.696 57.8897 316.972 55.2292 316.972 53.853C316.972 41.1924 309.357 30.9172 295.32 30.9172ZM266.421 81.1925C266.421 81.1925 264.403 81.4677 262.109 81.4677C254.495 81.4677 247.522 78.8072 247.522 65.8714V24.2199H239.908V15.4126H259.082V65.0457C259.082 69.3576 259.999 71.8347 264.128 71.8347C265.504 71.8347 266.421 71.7429 266.421 71.7429V81.1925ZM215.229 41.5594C206.697 41.5594 202.293 50.0915 202.293 59.1741V72.2017H209.541V80.9173H190.55V51.7429C190.55 46.2383 189.633 41.4677 183.577 41.4677C174.678 41.4677 170.367 50.7337 170.367 59.7246V72.2017H177.614V80.9173H151.376V72.2017H158.623V42.8438C158.623 41.4677 157.889 40.8255 156.513 40.8255H150.917V32.1099H163.486C167.798 32.1099 169.908 34.0365 169.908 37.6145V39.8163C169.908 41.009 169.724 42.1099 169.724 42.1099H169.908C172.477 36.9723 178.715 31.0089 186.88 31.0089C193.944 31.0089 198.899 34.3117 200.733 41.7429H200.917C203.669 35.9631 210.366 31.0089 218.165 31.0089C228.348 31.0089 234.036 36.8805 234.036 49.6328V72.2934H241.284V81.009H222.293V51.8347C222.476 46.0548 221.376 41.5594 215.229 41.5594ZM128.807 59.5411C128.807 65.8714 124.036 73.2108 116.972 73.2108C112.293 73.2108 109.633 69.9998 109.633 66.2383C109.633 58.5319 122.018 57.798 126.697 57.798H128.807V59.5411ZM142.477 72.1099C141.101 72.1099 140.367 71.4677 140.367 69.9998V50.0915C140.367 37.6145 133.486 30.9172 120.458 30.9172C108.715 30.9172 101.284 36.8805 101.284 36.8805L105.688 44.9539C105.688 44.9539 112.11 40.275 119.541 40.275C124.77 40.275 128.807 42.5686 128.807 49.0824V50.8255H125.688C117.706 50.8255 97.9814 52.2934 97.9814 67.1558C97.9814 77.064 105.871 82.0182 114.22 82.0182C125.596 82.0182 129.724 72.4769 129.724 72.4769H129.908C129.908 72.4769 129.633 73.5778 129.633 75.1374V75.6879C129.633 78.5319 131.376 80.8255 135.779 80.8255H146.972V72.1099H142.477ZM58.7154 51.009C59.9998 44.3117 64.587 39.908 71.009 39.908C76.4218 39.908 80.7337 43.9447 81.009 51.009H58.7154ZM92.9355 54.0365C92.9355 41.1924 85.3209 31.0089 71.2842 31.0089C57.2476 31.0089 46.4219 41.4677 46.4219 56.4218C46.4219 70.3668 56.6054 81.9264 72.7521 81.9264C84.9539 81.9264 92.3851 75.1374 92.3851 75.1374L87.8897 66.8806C87.8897 66.8806 81.6512 72.1099 73.5778 72.1099C65.9631 72.1099 59.2659 67.2475 58.4402 57.9815H92.752C92.6603 58.0732 92.9355 55.3209 92.9355 54.0365ZM19.8165 81.9264C10.8257 81.9264 0 78.0732 0 70.1833V64.6787H9.99997V67.6145C9.99997 71.1925 14.8623 72.8439 20.0917 72.8439C25.321 72.8439 28.8073 71.009 28.8073 67.6145C28.8073 63.3943 23.9449 62.2934 17.3394 59.9081C10.0917 57.3393 1.74311 54.0365 1.74311 44.8622C1.74311 34.5869 12.0183 31.0089 20.9174 31.0089C28.0733 31.0089 38.6237 33.7612 38.6237 41.009V47.1558H28.4403V44.3117C28.4403 41.7429 25.321 40.0915 21.0091 40.0915C16.9724 40.0915 13.4862 41.6512 13.4862 44.7704C13.4862 48.9906 18.5321 50.642 24.0366 52.2934C31.5595 54.6787 40.4586 57.7062 40.4586 67.2475C40.4586 76.9723 31.1926 81.9264 19.8165 81.9264Z" fill="white"/>
<path d="M535.161 36.8808C534.886 36.6056 534.794 36.2386 534.703 35.8716C533.602 23.3028 531.767 14.9541 531.767 14.9541C531.492 13.4863 530.207 12.4771 528.831 12.2936L518.831 11.1009H518.556C517.363 11.1009 516.446 12.0184 516.446 13.211V16.6973C516.446 16.789 516.354 16.789 516.354 16.789H516.262C510.207 11.3762 503.51 6.1468 495.987 1.46789C494.519 0.550459 492.868 0 491.033 0C489.198 0 487.455 0.550459 486.079 1.46789C451.308 22.8441 432.318 57.6148 431.492 59.4496C431.308 59.9083 431.125 60.3671 431.125 60.9175C431.125 62.4771 432.226 63.8533 433.694 64.2203L443.694 66.1469C445.07 66.5138 446.079 67.6148 446.171 69.0827C446.263 70.8258 448.097 110.184 450.483 120.367C450.85 121.835 452.226 122.936 453.785 122.936H453.877C459.657 122.752 465.07 122.661 470.758 122.661H471.308C471.951 122.661 472.409 122.202 472.409 121.56C472.134 118.165 471.675 110.275 471.308 102.018V101.376C471.308 100.642 470.85 100 470.299 99.6332C467.272 97.7983 465.253 94.679 465.07 90.9175C464.519 77.1561 464.244 61.1927 465.07 48.7157C465.162 47.7065 465.987 46.8808 466.996 46.7891C468.097 46.7891 469.015 47.6147 469.015 48.7157V48.8991C468.556 57.2478 468.464 67.0643 468.648 76.6973C468.648 77.9817 469.749 79.0827 471.033 78.9909C472.318 78.9909 473.418 77.89 473.327 76.6056C473.143 66.8808 473.235 56.9726 473.694 48.6239C473.785 47.6147 474.611 46.7891 475.62 46.6973C476.721 46.6973 477.639 47.523 477.639 48.6239V48.8074C477.18 57.0643 477.088 66.8808 477.272 76.5139C477.272 77.7983 478.373 78.8992 479.657 78.8074C480.941 78.8074 482.042 77.7065 481.951 76.4221C481.767 66.6973 481.859 56.8808 482.318 48.5322C482.409 47.523 483.235 46.6973 484.244 46.6056C485.345 46.6056 486.262 47.4313 486.262 48.5322V48.7157C485.529 60.8258 485.804 76.1469 486.262 89.6331V89.9084V90.0001C486.262 93.6698 484.428 96.9726 481.584 98.8992C481.125 99.2662 480.758 99.8166 480.666 100.459C480.666 100.459 480.391 102.569 481.308 112.569C481.767 116.973 482.042 120 482.226 121.376C482.318 121.927 482.685 122.294 483.235 122.294H498.281L503.969 122.385C504.519 122.385 504.978 122.018 505.07 121.468C506.354 109.45 506.721 102.752 506.721 102.752C506.721 102.11 506.262 101.652 505.62 101.56L498.74 100.642C497.639 100.459 496.996 99.8166 496.813 98.991C496.629 98.5322 496.721 97.89 496.721 97.89C499.473 57.89 512.684 44.4037 512.684 44.4037C513.051 44.0368 513.327 43.8533 513.327 43.8533C513.694 43.578 514.061 43.4863 514.611 43.4863C515.528 43.4863 516.262 44.0368 516.538 44.8624C516.538 44.8624 516.629 45.1377 516.721 45.7799C517.822 58.3487 517.272 79.7249 516.629 96.4221C515.987 110.551 515.345 121.743 515.345 121.743C515.345 122.202 515.712 122.569 516.171 122.569C519.932 122.661 523.602 122.752 527.547 122.844H527.639C529.198 122.844 530.574 121.743 530.941 120.275C533.327 110.092 535.161 70.734 535.253 68.9909C535.437 67.6148 536.446 66.4221 537.73 66.0551L547.73 64.1285C549.198 63.7616 550.299 62.3854 550.299 60.8258C550.299 60.2753 550.207 59.8166 549.932 59.3579C550.024 58.5322 544.794 48.8991 535.161 36.8808Z" fill="white"/>
</svg>
